<svg preserveAspectRatio="none" width="100%" height="100%" overflow="visible" style="display: block;" viewBox="0 0 216 52" fill="none" xmlns="http://www.w3.org/2000/svg">
<path id="Vector" d="M104.275 25.4866L99.8343 6.11495H86.8599L82.6752 25.4866L78.6679 6.11495H64.0117L74.9693 45.8H88.581L93.1599 26.4349L97.8569 45.8H111.791L123.05 6.11495H108.374L104.275 25.4866ZM160.693 6.12149V45.8H188.001V33.9691H175.71V6.12149H160.693ZM132.537 39.757H141.747L143.251 45.8H157.947L145.301 6.11495H128.805L115.831 45.8H131.17L132.537 39.757ZM137.207 19.3717L139.71 30.9279H134.593L137.207 19.3717ZM216 0H0V4.07446H216V0ZM215.764 42.4908C215.764 40.6268 214.246 39.2534 212.466 39.2534C210.666 39.2534 209.148 40.6268 209.148 42.4908C209.148 44.3743 210.666 45.7477 212.466 45.7477C214.246 45.7477 215.764 44.3743 215.764 42.4908ZM209.805 42.4908C209.805 40.9538 210.974 39.7897 212.466 39.7897C213.937 39.7897 215.107 40.9538 215.107 42.4908C215.107 44.0538 213.937 45.2114 212.466 45.2114C210.974 45.2114 209.805 44.0538 209.805 42.4908ZM183.226 6.12149V17.3442H192.081V45.8H207.118V17.3442H216V6.12149H183.226ZM213.885 44.1127L213.05 42.8635C213.615 42.7916 214.003 42.4515 214.003 41.7713C214.003 41.1958 213.55 40.7707 212.643 40.7707H211.204V44.1127H211.828V42.9159H212.367L213.077 44.1127H213.885ZM211.828 42.3534V41.2808H212.558C212.965 41.2808 213.425 41.307 213.425 41.7975C213.425 42.36 213.057 42.3534 212.558 42.3534H211.828ZM0.00656934 6.11495V45.8H18.6044C29.9825 45.8 38.4701 39.6066 38.4701 26.036C38.4701 12.0926 29.7066 6.11495 18.6766 6.11495H0.00656934V6.11495ZM23.2752 25.9052C23.2752 31.9351 20.1482 33.9102 15.4182 33.9102H14.2423V17.5208H15.4511C20.181 17.5208 23.2752 19.2866 23.2752 25.9052ZM63.5124 22.779V14.6105H41.6496V45.8H63.5124V37.7165H52.9292V34.3353H62.146V26.1668H52.9292V22.779H63.5124ZM0 52H215.987V47.9255H0V52Z" fill="var(--fill-0, #FEBD17)"/>
</svg>
